<?xml version="1.0" encoding="UTF-8" standalone="no"?>
<!DOCTYPE svg PUBLIC "-//W3C//DTD SVG 1.1//EN"
 "http://www.w3.org/Graphics/SVG/1.1/DTD/svg11.dtd">
<!-- Generated by graphviz version 3.0.0 (20220226.1711)
 -->
<!-- Title: G Pages: 1 -->
<svg width="221pt" height="294pt"
 viewBox="0.00 0.00 221.10 294.19" xmlns="http://www.w3.org/2000/svg" xmlns:xlink="http://www.w3.org/1999/xlink">
<g id="graph0" class="graph" transform="scale(1 1) rotate(0) translate(4 290.19)">
<title>G</title>
<polygon fill="white" stroke="transparent" points="-4,4 -4,-290.19 217.1,-290.19 217.1,4 -4,4"/>
<!-- N1 -->
<g id="node1" class="node">
<title>N1</title>
<ellipse fill="green" stroke="black" cx="168.1" cy="-268.19" rx="18" ry="18"/>
<text text-anchor="middle" x="168.1" y="-264.49" font-family="Times New Roman,serif" font-size="14.00">.</text>
</g>
<!-- N2 -->
<g id="node2" class="node">
<title>N2</title>
<ellipse fill="green" stroke="black" cx="141.1" cy="-196.19" rx="18" ry="18"/>
<text text-anchor="middle" x="141.1" y="-192.49" font-family="Times New Roman,serif" font-size="14.00">.</text>
</g>
<!-- N1&#45;&gt;N2 -->
<g id="edge1" class="edge">
<title>N1&#45;&gt;N2</title>
<path fill="none" stroke="black" d="M161.83,-250.96C158.6,-242.57 154.57,-232.13 150.93,-222.69"/>
<polygon fill="black" stroke="black" points="154.19,-221.41 147.33,-213.34 147.66,-223.93 154.19,-221.41"/>
</g>
<!-- N8 -->
<g id="node8" class="node">
<title>N8</title>
<ellipse fill="green" stroke="black" cx="195.1" cy="-196.19" rx="18" ry="18"/>
<text text-anchor="middle" x="195.1" y="-192.49" font-family="Times New Roman,serif" font-size="14.00">#</text>
</g>
<!-- N1&#45;&gt;N8 -->
<g id="edge7" class="edge">
<title>N1&#45;&gt;N8</title>
<path fill="none" stroke="black" d="M174.36,-250.96C177.6,-242.57 181.62,-232.13 185.26,-222.69"/>
<polygon fill="black" stroke="black" points="188.54,-223.93 188.87,-213.34 182,-221.41 188.54,-223.93"/>
</g>
<!-- N3 -->
<g id="node3" class="node">
<title>N3</title>
<ellipse fill="green" stroke="black" cx="114.1" cy="-124.19" rx="18" ry="18"/>
<text text-anchor="middle" x="114.1" y="-120.49" font-family="Times New Roman,serif" font-size="14.00">.</text>
</g>
<!-- N2&#45;&gt;N3 -->
<g id="edge2" class="edge">
<title>N2&#45;&gt;N3</title>
<path fill="none" stroke="black" d="M134.83,-178.96C131.6,-170.57 127.57,-160.13 123.93,-150.69"/>
<polygon fill="black" stroke="black" points="127.19,-149.41 120.33,-141.34 120.66,-151.93 127.19,-149.41"/>
</g>
<!-- N6 -->
<g id="node6" class="node">
<title>N6</title>
<ellipse fill="green" stroke="black" cx="176.1" cy="-124.19" rx="18" ry="18"/>
<text text-anchor="middle" x="176.1" y="-120.49" font-family="Times New Roman,serif" font-size="14.00">*</text>
</g>
<!-- N2&#45;&gt;N6 -->
<g id="edge5" class="edge">
<title>N2&#45;&gt;N6</title>
<path fill="none" stroke="black" d="M148.86,-179.66C153.26,-170.87 158.86,-159.67 163.83,-149.73"/>
<polygon fill="black" stroke="black" points="167.01,-151.2 168.35,-140.69 160.75,-148.06 167.01,-151.2"/>
</g>
<!-- N4 -->
<g id="node4" class="node">
<title>N4</title>
<ellipse fill="green" stroke="black" cx="35.1" cy="-35.1" rx="35.19" ry="35.19"/>
<text text-anchor="middle" x="35.1" y="-31.4" font-family="Times New Roman,serif" font-size="14.00">Mayus</text>
</g>
<!-- N3&#45;&gt;N4 -->
<g id="edge3" class="edge">
<title>N3&#45;&gt;N4</title>
<path fill="none" stroke="black" d="M102.44,-110.34C92.66,-99.56 78.25,-83.68 65.27,-69.36"/>
<polygon fill="black" stroke="black" points="67.55,-66.67 58.24,-61.61 62.37,-71.37 67.55,-66.67"/>
</g>
<!-- N5 -->
<g id="node5" class="node">
<title>N5</title>
<ellipse fill="green" stroke="black" cx="114.1" cy="-35.1" rx="26" ry="26"/>
<text text-anchor="middle" x="114.1" y="-31.4" font-family="Times New Roman,serif" font-size="14.00">letra</text>
</g>
<!-- N3&#45;&gt;N5 -->
<g id="edge4" class="edge">
<title>N3&#45;&gt;N5</title>
<path fill="none" stroke="black" d="M114.1,-105.99C114.1,-96.09 114.1,-83.3 114.1,-71.36"/>
<polygon fill="black" stroke="black" points="117.6,-71.19 114.1,-61.19 110.6,-71.19 117.6,-71.19"/>
</g>
<!-- N7 -->
<g id="node7" class="node">
<title>N7</title>
<ellipse fill="green" stroke="black" cx="184.1" cy="-35.1" rx="26" ry="26"/>
<text text-anchor="middle" x="184.1" y="-31.4" font-family="Times New Roman,serif" font-size="14.00">letra</text>
</g>
<!-- N6&#45;&gt;N7 -->
<g id="edge6" class="edge">
<title>N6&#45;&gt;N7</title>
<path fill="none" stroke="black" d="M177.68,-105.99C178.59,-96.09 179.76,-83.3 180.86,-71.36"/>
<polygon fill="black" stroke="black" points="184.36,-71.47 181.79,-61.19 177.39,-70.83 184.36,-71.47"/>
</g>
</g>
</svg>
