<?xml version="1.0" encoding="UTF-8" standalone="no"?>
<!DOCTYPE svg PUBLIC "-//W3C//DTD SVG 1.1//EN"
 "http://www.w3.org/Graphics/SVG/1.1/DTD/svg11.dtd">
<!-- Generated by graphviz version 3.0.0 (20220226.1711)
 -->
<!-- Title: G Pages: 1 -->
<svg width="504pt" height="622pt"
 viewBox="0.00 0.00 504.30 622.38" xmlns="http://www.w3.org/2000/svg" xmlns:xlink="http://www.w3.org/1999/xlink">
<g id="graph0" class="graph" transform="scale(1 1) rotate(0) translate(4 618.38)">
<title>G</title>
<polygon fill="white" stroke="transparent" points="-4,4 -4,-618.38 500.3,-618.38 500.3,4 -4,4"/>
<!-- N1 -->
<g id="node1" class="node">
<title>N1</title>
<ellipse fill="green" stroke="black" cx="350.1" cy="-596.38" rx="18" ry="18"/>
<text text-anchor="middle" x="350.1" y="-592.68" font-family="Times New Roman,serif" font-size="14.00">.</text>
</g>
<!-- N2 -->
<g id="node2" class="node">
<title>N2</title>
<ellipse fill="green" stroke="black" cx="323.1" cy="-524.38" rx="18" ry="18"/>
<text text-anchor="middle" x="323.1" y="-520.68" font-family="Times New Roman,serif" font-size="14.00">.</text>
</g>
<!-- N1&#45;&gt;N2 -->
<g id="edge1" class="edge">
<title>N1&#45;&gt;N2</title>
<path fill="none" stroke="black" d="M343.84,-579.15C340.6,-570.75 336.57,-560.31 332.93,-550.88"/>
<polygon fill="black" stroke="black" points="336.19,-549.6 329.33,-541.53 329.66,-552.12 336.19,-549.6"/>
</g>
<!-- N29 -->
<g id="node29" class="node">
<title>N29</title>
<ellipse fill="green" stroke="black" cx="377.1" cy="-524.38" rx="18" ry="18"/>
<text text-anchor="middle" x="377.1" y="-520.68" font-family="Times New Roman,serif" font-size="14.00">#</text>
</g>
<!-- N1&#45;&gt;N29 -->
<g id="edge28" class="edge">
<title>N1&#45;&gt;N29</title>
<path fill="none" stroke="black" d="M356.36,-579.15C359.6,-570.75 363.62,-560.31 367.26,-550.88"/>
<polygon fill="black" stroke="black" points="370.54,-552.12 370.87,-541.53 364.01,-549.6 370.54,-552.12"/>
</g>
<!-- N3 -->
<g id="node3" class="node">
<title>N3</title>
<ellipse fill="green" stroke="black" cx="296.1" cy="-452.38" rx="18" ry="18"/>
<text text-anchor="middle" x="296.1" y="-448.68" font-family="Times New Roman,serif" font-size="14.00">.</text>
</g>
<!-- N2&#45;&gt;N3 -->
<g id="edge2" class="edge">
<title>N2&#45;&gt;N3</title>
<path fill="none" stroke="black" d="M316.84,-507.15C313.6,-498.75 309.57,-488.31 305.93,-478.88"/>
<polygon fill="black" stroke="black" points="309.19,-477.6 302.33,-469.53 302.66,-480.12 309.19,-477.6"/>
</g>
<!-- N21 -->
<g id="node21" class="node">
<title>N21</title>
<ellipse fill="green" stroke="black" cx="360.1" cy="-452.38" rx="18" ry="18"/>
<text text-anchor="middle" x="360.1" y="-448.68" font-family="Times New Roman,serif" font-size="14.00">.</text>
</g>
<!-- N2&#45;&gt;N21 -->
<g id="edge20" class="edge">
<title>N2&#45;&gt;N21</title>
<path fill="none" stroke="black" d="M331.13,-508.19C335.88,-499.2 342,-487.61 347.4,-477.41"/>
<polygon fill="black" stroke="black" points="350.51,-479.02 352.09,-468.54 344.32,-475.75 350.51,-479.02"/>
</g>
<!-- N4 -->
<g id="node4" class="node">
<title>N4</title>
<ellipse fill="green" stroke="black" cx="237.1" cy="-380.38" rx="18" ry="18"/>
<text text-anchor="middle" x="237.1" y="-376.68" font-family="Times New Roman,serif" font-size="14.00">.</text>
</g>
<!-- N3&#45;&gt;N4 -->
<g id="edge3" class="edge">
<title>N3&#45;&gt;N4</title>
<path fill="none" stroke="black" d="M284.72,-437.88C276.32,-427.91 264.7,-414.13 255.05,-402.68"/>
<polygon fill="black" stroke="black" points="257.56,-400.23 248.44,-394.84 252.21,-404.74 257.56,-400.23"/>
</g>
<!-- N20 -->
<g id="node20" class="node">
<title>N20</title>
<ellipse fill="green" stroke="black" cx="296.1" cy="-380.38" rx="18" ry="18"/>
<text text-anchor="middle" x="296.1" y="-376.68" font-family="Times New Roman,serif" font-size="14.00">. </text>
</g>
<!-- N3&#45;&gt;N20 -->
<g id="edge19" class="edge">
<title>N3&#45;&gt;N20</title>
<path fill="none" stroke="black" d="M296.1,-434.08C296.1,-426.36 296.1,-417.09 296.1,-408.49"/>
<polygon fill="black" stroke="black" points="299.6,-408.48 296.1,-398.48 292.6,-408.48 299.6,-408.48"/>
</g>
<!-- N5 -->
<g id="node5" class="node">
<title>N5</title>
<ellipse fill="green" stroke="black" cx="177.1" cy="-300.38" rx="18" ry="18"/>
<text text-anchor="middle" x="177.1" y="-296.68" font-family="Times New Roman,serif" font-size="14.00">.</text>
</g>
<!-- N4&#45;&gt;N5 -->
<g id="edge4" class="edge">
<title>N4&#45;&gt;N5</title>
<path fill="none" stroke="black" d="M226.37,-365.44C217.41,-353.79 204.48,-336.97 194.11,-323.5"/>
<polygon fill="black" stroke="black" points="196.6,-321 187.73,-315.21 191.06,-325.27 196.6,-321"/>
</g>
<!-- N12 -->
<g id="node12" class="node">
<title>N12</title>
<ellipse fill="green" stroke="black" cx="237.1" cy="-300.38" rx="18" ry="18"/>
<text text-anchor="middle" x="237.1" y="-296.68" font-family="Times New Roman,serif" font-size="14.00">.</text>
</g>
<!-- N4&#45;&gt;N12 -->
<g id="edge11" class="edge">
<title>N4&#45;&gt;N12</title>
<path fill="none" stroke="black" d="M237.1,-362.07C237.1,-352.28 237.1,-339.8 237.1,-328.72"/>
<polygon fill="black" stroke="black" points="240.6,-328.64 237.1,-318.64 233.6,-328.64 240.6,-328.64"/>
</g>
<!-- N6 -->
<g id="node6" class="node">
<title>N6</title>
<ellipse fill="green" stroke="black" cx="111.1" cy="-207.19" rx="18" ry="18"/>
<text text-anchor="middle" x="111.1" y="-203.49" font-family="Times New Roman,serif" font-size="14.00">.</text>
</g>
<!-- N5&#45;&gt;N6 -->
<g id="edge5" class="edge">
<title>N5&#45;&gt;N6</title>
<path fill="none" stroke="black" d="M166.79,-285.13C156.23,-270.54 139.66,-247.66 127.34,-230.63"/>
<polygon fill="black" stroke="black" points="130.04,-228.39 121.34,-222.34 124.37,-232.49 130.04,-228.39"/>
</g>
<!-- N11 -->
<g id="node11" class="node">
<title>N11</title>
<ellipse fill="green" stroke="black" cx="177.1" cy="-207.19" rx="18" ry="18"/>
<text text-anchor="middle" x="177.1" y="-203.49" font-family="Times New Roman,serif" font-size="14.00">. </text>
</g>
<!-- N5&#45;&gt;N11 -->
<g id="edge10" class="edge">
<title>N5&#45;&gt;N11</title>
<path fill="none" stroke="black" d="M177.1,-282.23C177.1,-269.11 177.1,-250.76 177.1,-235.61"/>
<polygon fill="black" stroke="black" points="180.6,-235.26 177.1,-225.26 173.6,-235.26 180.6,-235.26"/>
</g>
<!-- N7 -->
<g id="node7" class="node">
<title>N7</title>
<ellipse fill="green" stroke="black" cx="53.1" cy="-113.99" rx="18" ry="18"/>
<text text-anchor="middle" x="53.1" y="-110.29" font-family="Times New Roman,serif" font-size="14.00">.</text>
</g>
<!-- N6&#45;&gt;N7 -->
<g id="edge6" class="edge">
<title>N6&#45;&gt;N7</title>
<path fill="none" stroke="black" d="M101.78,-191.54C92.65,-177.18 78.58,-155.07 67.92,-138.29"/>
<polygon fill="black" stroke="black" points="70.71,-136.17 62.39,-129.61 64.81,-139.93 70.71,-136.17"/>
</g>
<!-- N10 -->
<g id="node10" class="node">
<title>N10</title>
<ellipse fill="green" stroke="black" cx="111.1" cy="-113.99" rx="22.2" ry="22.2"/>
<text text-anchor="middle" x="111.1" y="-110.29" font-family="Times New Roman,serif" font-size="14.00">w &#160;</text>
</g>
<!-- N6&#45;&gt;N10 -->
<g id="edge9" class="edge">
<title>N6&#45;&gt;N10</title>
<path fill="none" stroke="black" d="M111.1,-189.03C111.1,-177.11 111.1,-160.87 111.1,-146.63"/>
<polygon fill="black" stroke="black" points="114.6,-146.24 111.1,-136.24 107.6,-146.24 114.6,-146.24"/>
</g>
<!-- N8 -->
<g id="node8" class="node">
<title>N8</title>
<ellipse fill="green" stroke="black" cx="22.1" cy="-26" rx="22.2" ry="22.2"/>
<text text-anchor="middle" x="22.1" y="-22.3" font-family="Times New Roman,serif" font-size="14.00">w &#160;</text>
</g>
<!-- N7&#45;&gt;N8 -->
<g id="edge7" class="edge">
<title>N7&#45;&gt;N8</title>
<path fill="none" stroke="black" d="M47.27,-96.82C43.21,-85.57 37.69,-70.26 32.85,-56.83"/>
<polygon fill="black" stroke="black" points="36.01,-55.26 29.32,-47.04 29.42,-57.63 36.01,-55.26"/>
</g>
<!-- N9 -->
<g id="node9" class="node">
<title>N9</title>
<ellipse fill="green" stroke="black" cx="84.1" cy="-26" rx="22.2" ry="22.2"/>
<text text-anchor="middle" x="84.1" y="-22.3" font-family="Times New Roman,serif" font-size="14.00">w &#160;</text>
</g>
<!-- N7&#45;&gt;N9 -->
<g id="edge8" class="edge">
<title>N7&#45;&gt;N9</title>
<path fill="none" stroke="black" d="M58.93,-96.82C62.98,-85.57 68.5,-70.26 73.34,-56.83"/>
<polygon fill="black" stroke="black" points="76.78,-57.63 76.87,-47.04 70.19,-55.26 76.78,-57.63"/>
</g>
<!-- N13 -->
<g id="node13" class="node">
<title>N13</title>
<ellipse fill="green" stroke="black" cx="237.1" cy="-207.19" rx="18" ry="18"/>
<text text-anchor="middle" x="237.1" y="-203.49" font-family="Times New Roman,serif" font-size="14.00">|</text>
</g>
<!-- N12&#45;&gt;N13 -->
<g id="edge12" class="edge">
<title>N12&#45;&gt;N13</title>
<path fill="none" stroke="black" d="M237.1,-282.23C237.1,-269.11 237.1,-250.76 237.1,-235.61"/>
<polygon fill="black" stroke="black" points="240.6,-235.26 237.1,-225.26 233.6,-235.26 240.6,-235.26"/>
</g>
<!-- N16 -->
<g id="node16" class="node">
<title>N16</title>
<ellipse fill="green" stroke="black" cx="296.1" cy="-207.19" rx="18" ry="18"/>
<text text-anchor="middle" x="296.1" y="-203.49" font-family="Times New Roman,serif" font-size="14.00">*</text>
</g>
<!-- N12&#45;&gt;N16 -->
<g id="edge15" class="edge">
<title>N12&#45;&gt;N16</title>
<path fill="none" stroke="black" d="M246.58,-284.73C255.87,-270.37 270.17,-248.26 281.02,-231.49"/>
<polygon fill="black" stroke="black" points="284.15,-233.1 286.64,-222.8 278.27,-229.3 284.15,-233.1"/>
</g>
<!-- N14 -->
<g id="node14" class="node">
<title>N14</title>
<ellipse fill="green" stroke="black" cx="177.1" cy="-113.99" rx="26" ry="26"/>
<text text-anchor="middle" x="177.1" y="-110.29" font-family="Times New Roman,serif" font-size="14.00">letra</text>
</g>
<!-- N13&#45;&gt;N14 -->
<g id="edge13" class="edge">
<title>N13&#45;&gt;N14</title>
<path fill="none" stroke="black" d="M227.46,-191.54C219.13,-178.88 206.84,-160.19 196.48,-144.45"/>
<polygon fill="black" stroke="black" points="199.38,-142.5 190.96,-136.07 193.54,-146.34 199.38,-142.5"/>
</g>
<!-- N15 -->
<g id="node15" class="node">
<title>N15</title>
<ellipse fill="green" stroke="black" cx="243.1" cy="-113.99" rx="22.2" ry="22.2"/>
<text text-anchor="middle" x="243.1" y="-110.29" font-family="Times New Roman,serif" font-size="14.00">dig</text>
</g>
<!-- N13&#45;&gt;N15 -->
<g id="edge14" class="edge">
<title>N13&#45;&gt;N15</title>
<path fill="none" stroke="black" d="M238.23,-189.03C239.01,-177.11 240.08,-160.87 241.02,-146.63"/>
<polygon fill="black" stroke="black" points="244.54,-146.45 241.7,-136.24 237.55,-145.99 244.54,-146.45"/>
</g>
<!-- N17 -->
<g id="node17" class="node">
<title>N17</title>
<ellipse fill="green" stroke="black" cx="301.1" cy="-113.99" rx="18" ry="18"/>
<text text-anchor="middle" x="301.1" y="-110.29" font-family="Times New Roman,serif" font-size="14.00">|</text>
</g>
<!-- N16&#45;&gt;N17 -->
<g id="edge16" class="edge">
<title>N16&#45;&gt;N17</title>
<path fill="none" stroke="black" d="M297.04,-189.03C297.76,-175.92 298.76,-157.56 299.59,-142.41"/>
<polygon fill="black" stroke="black" points="303.11,-142.25 300.16,-132.07 296.12,-141.86 303.11,-142.25"/>
</g>
<!-- N18 -->
<g id="node18" class="node">
<title>N18</title>
<ellipse fill="green" stroke="black" cx="268.1" cy="-26" rx="26" ry="26"/>
<text text-anchor="middle" x="268.1" y="-22.3" font-family="Times New Roman,serif" font-size="14.00">letra</text>
</g>
<!-- N17&#45;&gt;N18 -->
<g id="edge17" class="edge">
<title>N17&#45;&gt;N18</title>
<path fill="none" stroke="black" d="M294.89,-96.82C290.9,-86.43 285.58,-72.56 280.73,-59.92"/>
<polygon fill="black" stroke="black" points="283.99,-58.65 277.14,-50.57 277.46,-61.16 283.99,-58.65"/>
</g>
<!-- N19 -->
<g id="node19" class="node">
<title>N19</title>
<ellipse fill="green" stroke="black" cx="334.1" cy="-26" rx="22.2" ry="22.2"/>
<text text-anchor="middle" x="334.1" y="-22.3" font-family="Times New Roman,serif" font-size="14.00">dig</text>
</g>
<!-- N17&#45;&gt;N19 -->
<g id="edge18" class="edge">
<title>N17&#45;&gt;N19</title>
<path fill="none" stroke="black" d="M307.31,-96.82C311.66,-85.46 317.61,-69.96 322.8,-56.44"/>
<polygon fill="black" stroke="black" points="326.09,-57.63 326.41,-47.04 319.56,-55.12 326.09,-57.63"/>
</g>
<!-- N22 -->
<g id="node22" class="node">
<title>N22</title>
<ellipse fill="green" stroke="black" cx="360.1" cy="-380.38" rx="18" ry="18"/>
<text text-anchor="middle" x="360.1" y="-376.68" font-family="Times New Roman,serif" font-size="14.00">|</text>
</g>
<!-- N21&#45;&gt;N22 -->
<g id="edge21" class="edge">
<title>N21&#45;&gt;N22</title>
<path fill="none" stroke="black" d="M360.1,-434.08C360.1,-426.36 360.1,-417.09 360.1,-408.49"/>
<polygon fill="black" stroke="black" points="363.6,-408.48 360.1,-398.48 356.6,-408.48 363.6,-408.48"/>
</g>
<!-- N25 -->
<g id="node25" class="node">
<title>N25</title>
<ellipse fill="green" stroke="black" cx="418.1" cy="-380.38" rx="18" ry="18"/>
<text text-anchor="middle" x="418.1" y="-376.68" font-family="Times New Roman,serif" font-size="14.00">*</text>
</g>
<!-- N21&#45;&gt;N25 -->
<g id="edge24" class="edge">
<title>N21&#45;&gt;N25</title>
<path fill="none" stroke="black" d="M371.28,-437.88C379.55,-427.91 390.96,-414.13 400.45,-402.68"/>
<polygon fill="black" stroke="black" points="403.26,-404.77 406.95,-394.84 397.87,-400.3 403.26,-404.77"/>
</g>
<!-- N23 -->
<g id="node23" class="node">
<title>N23</title>
<ellipse fill="green" stroke="black" cx="299.1" cy="-300.38" rx="26" ry="26"/>
<text text-anchor="middle" x="299.1" y="-296.68" font-family="Times New Roman,serif" font-size="14.00">letra</text>
</g>
<!-- N22&#45;&gt;N23 -->
<g id="edge22" class="edge">
<title>N22&#45;&gt;N23</title>
<path fill="none" stroke="black" d="M349.47,-365.79C341.58,-355.7 330.53,-341.58 320.8,-329.13"/>
<polygon fill="black" stroke="black" points="323.55,-326.97 314.63,-321.25 318.04,-331.28 323.55,-326.97"/>
</g>
<!-- N24 -->
<g id="node24" class="node">
<title>N24</title>
<ellipse fill="green" stroke="black" cx="365.1" cy="-300.38" rx="22.2" ry="22.2"/>
<text text-anchor="middle" x="365.1" y="-296.68" font-family="Times New Roman,serif" font-size="14.00">dig</text>
</g>
<!-- N22&#45;&gt;N24 -->
<g id="edge23" class="edge">
<title>N22&#45;&gt;N24</title>
<path fill="none" stroke="black" d="M361.21,-362.07C361.76,-353.41 362.45,-342.66 363.1,-332.62"/>
<polygon fill="black" stroke="black" points="366.6,-332.74 363.74,-322.54 359.61,-332.29 366.6,-332.74"/>
</g>
<!-- N26 -->
<g id="node26" class="node">
<title>N26</title>
<ellipse fill="green" stroke="black" cx="423.1" cy="-300.38" rx="18" ry="18"/>
<text text-anchor="middle" x="423.1" y="-296.68" font-family="Times New Roman,serif" font-size="14.00">|</text>
</g>
<!-- N25&#45;&gt;N26 -->
<g id="edge25" class="edge">
<title>N25&#45;&gt;N26</title>
<path fill="none" stroke="black" d="M419.21,-362.07C419.84,-352.21 420.65,-339.63 421.36,-328.49"/>
<polygon fill="black" stroke="black" points="424.86,-328.58 422.01,-318.38 417.88,-328.13 424.86,-328.58"/>
</g>
<!-- N27 -->
<g id="node27" class="node">
<title>N27</title>
<ellipse fill="green" stroke="black" cx="390.1" cy="-207.19" rx="26" ry="26"/>
<text text-anchor="middle" x="390.1" y="-203.49" font-family="Times New Roman,serif" font-size="14.00">letra</text>
</g>
<!-- N26&#45;&gt;N27 -->
<g id="edge26" class="edge">
<title>N26&#45;&gt;N27</title>
<path fill="none" stroke="black" d="M417.2,-283.08C413.01,-271.51 407.24,-255.57 402.11,-241.37"/>
<polygon fill="black" stroke="black" points="405.37,-240.11 398.68,-231.89 398.79,-242.49 405.37,-240.11"/>
</g>
<!-- N28 -->
<g id="node28" class="node">
<title>N28</title>
<ellipse fill="green" stroke="black" cx="465.1" cy="-207.19" rx="31.4" ry="31.4"/>
<text text-anchor="middle" x="465.1" y="-203.49" font-family="Times New Roman,serif" font-size="14.00">digito</text>
</g>
<!-- N26&#45;&gt;N28 -->
<g id="edge27" class="edge">
<title>N26&#45;&gt;N28</title>
<path fill="none" stroke="black" d="M430.41,-283.5C435.26,-272.99 441.82,-258.74 447.93,-245.47"/>
<polygon fill="black" stroke="black" points="451.26,-246.59 452.27,-236.05 444.91,-243.66 451.26,-246.59"/>
</g>
</g>
</svg>
