<?xml version="1.0" encoding="UTF-8" standalone="no"?>
<!DOCTYPE svg PUBLIC "-//W3C//DTD SVG 1.1//EN"
 "http://www.w3.org/Graphics/SVG/1.1/DTD/svg11.dtd">
<!-- Generated by graphviz version 3.0.0 (20220226.1711)
 -->
<!-- Title: G Pages: 1 -->
<svg width="205pt" height="354pt"
 viewBox="0.00 0.00 205.50 353.59" xmlns="http://www.w3.org/2000/svg" xmlns:xlink="http://www.w3.org/1999/xlink">
<g id="graph0" class="graph" transform="scale(1 1) rotate(0) translate(4 349.59)">
<title>G</title>
<polygon fill="white" stroke="transparent" points="-4,4 -4,-349.59 201.5,-349.59 201.5,4 -4,4"/>
<!-- N1 -->
<g id="node1" class="node">
<title>N1</title>
<ellipse fill="green" stroke="black" cx="141.4" cy="-327.59" rx="18" ry="18"/>
<text text-anchor="middle" x="141.4" y="-323.89" font-family="Times New Roman,serif" font-size="14.00">.</text>
</g>
<!-- N2 -->
<g id="node2" class="node">
<title>N2</title>
<ellipse fill="green" stroke="black" cx="114.4" cy="-255.59" rx="18" ry="18"/>
<text text-anchor="middle" x="114.4" y="-251.89" font-family="Times New Roman,serif" font-size="14.00">.</text>
</g>
<!-- N1&#45;&gt;N2 -->
<g id="edge1" class="edge">
<title>N1&#45;&gt;N2</title>
<path fill="none" stroke="black" d="M135.14,-310.36C131.9,-301.96 127.87,-291.53 124.23,-282.09"/>
<polygon fill="black" stroke="black" points="127.49,-280.81 120.63,-272.74 120.96,-283.33 127.49,-280.81"/>
</g>
<!-- N10 -->
<g id="node10" class="node">
<title>N10</title>
<ellipse fill="green" stroke="black" cx="168.4" cy="-255.59" rx="18" ry="18"/>
<text text-anchor="middle" x="168.4" y="-251.89" font-family="Times New Roman,serif" font-size="14.00">#</text>
</g>
<!-- N1&#45;&gt;N10 -->
<g id="edge9" class="edge">
<title>N1&#45;&gt;N10</title>
<path fill="none" stroke="black" d="M147.66,-310.36C150.9,-301.96 154.92,-291.53 158.56,-282.09"/>
<polygon fill="black" stroke="black" points="161.84,-283.33 162.17,-272.74 155.31,-280.81 161.84,-283.33"/>
</g>
<!-- N3 -->
<g id="node3" class="node">
<title>N3</title>
<ellipse fill="green" stroke="black" cx="86.4" cy="-183.59" rx="18" ry="18"/>
<text text-anchor="middle" x="86.4" y="-179.89" font-family="Times New Roman,serif" font-size="14.00">|</text>
</g>
<!-- N2&#45;&gt;N3 -->
<g id="edge2" class="edge">
<title>N2&#45;&gt;N3</title>
<path fill="none" stroke="black" d="M108.04,-238.71C104.69,-230.32 100.49,-219.83 96.69,-210.32"/>
<polygon fill="black" stroke="black" points="99.88,-208.88 92.92,-200.9 93.39,-211.48 99.88,-208.88"/>
</g>
<!-- N6 -->
<g id="node6" class="node">
<title>N6</title>
<ellipse fill="green" stroke="black" cx="142.4" cy="-183.59" rx="18" ry="18"/>
<text text-anchor="middle" x="142.4" y="-179.89" font-family="Times New Roman,serif" font-size="14.00">*</text>
</g>
<!-- N2&#45;&gt;N6 -->
<g id="edge5" class="edge">
<title>N2&#45;&gt;N6</title>
<path fill="none" stroke="black" d="M120.75,-238.71C124.1,-230.32 128.3,-219.83 132.11,-210.32"/>
<polygon fill="black" stroke="black" points="135.41,-211.48 135.88,-200.9 128.91,-208.88 135.41,-211.48"/>
</g>
<!-- N4 -->
<g id="node4" class="node">
<title>N4</title>
<ellipse fill="green" stroke="black" cx="23.4" cy="-106.19" rx="23.3" ry="23.3"/>
<text text-anchor="middle" x="23.4" y="-102.49" font-family="Times New Roman,serif" font-size="14.00">hex</text>
</g>
<!-- N3&#45;&gt;N4 -->
<g id="edge3" class="edge">
<title>N3&#45;&gt;N4</title>
<path fill="none" stroke="black" d="M75.13,-169.11C66.66,-158.97 54.79,-144.76 44.56,-132.52"/>
<polygon fill="black" stroke="black" points="47.22,-130.24 38.12,-124.81 41.85,-134.73 47.22,-130.24"/>
</g>
<!-- N5 -->
<g id="node5" class="node">
<title>N5</title>
<ellipse fill="green" stroke="black" cx="86.4" cy="-106.19" rx="22.2" ry="22.2"/>
<text text-anchor="middle" x="86.4" y="-102.49" font-family="Times New Roman,serif" font-size="14.00">dig</text>
</g>
<!-- N3&#45;&gt;N5 -->
<g id="edge4" class="edge">
<title>N3&#45;&gt;N5</title>
<path fill="none" stroke="black" d="M86.4,-165.48C86.4,-157.53 86.4,-147.81 86.4,-138.6"/>
<polygon fill="black" stroke="black" points="89.9,-138.55 86.4,-128.55 82.9,-138.55 89.9,-138.55"/>
</g>
<!-- N7 -->
<g id="node7" class="node">
<title>N7</title>
<ellipse fill="green" stroke="black" cx="144.4" cy="-106.19" rx="18" ry="18"/>
<text text-anchor="middle" x="144.4" y="-102.49" font-family="Times New Roman,serif" font-size="14.00">|</text>
</g>
<!-- N6&#45;&gt;N7 -->
<g id="edge6" class="edge">
<title>N6&#45;&gt;N7</title>
<path fill="none" stroke="black" d="M142.85,-165.48C143.09,-156.32 143.4,-144.83 143.67,-134.47"/>
<polygon fill="black" stroke="black" points="147.18,-134.32 143.95,-124.24 140.18,-134.14 147.18,-134.32"/>
</g>
<!-- N8 -->
<g id="node8" class="node">
<title>N8</title>
<ellipse fill="green" stroke="black" cx="112.4" cy="-23.4" rx="23.3" ry="23.3"/>
<text text-anchor="middle" x="112.4" y="-19.7" font-family="Times New Roman,serif" font-size="14.00">hex</text>
</g>
<!-- N7&#45;&gt;N8 -->
<g id="edge7" class="edge">
<title>N7&#45;&gt;N8</title>
<path fill="none" stroke="black" d="M138.08,-89.23C134.21,-79.46 129.12,-66.63 124.5,-54.97"/>
<polygon fill="black" stroke="black" points="127.71,-53.54 120.77,-45.53 121.2,-56.12 127.71,-53.54"/>
</g>
<!-- N9 -->
<g id="node9" class="node">
<title>N9</title>
<ellipse fill="green" stroke="black" cx="175.4" cy="-23.4" rx="22.2" ry="22.2"/>
<text text-anchor="middle" x="175.4" y="-19.7" font-family="Times New Roman,serif" font-size="14.00">dig</text>
</g>
<!-- N7&#45;&gt;N9 -->
<g id="edge8" class="edge">
<title>N7&#45;&gt;N9</title>
<path fill="none" stroke="black" d="M150.52,-89.23C154.38,-79.17 159.48,-65.87 164.06,-53.94"/>
<polygon fill="black" stroke="black" points="167.43,-54.93 167.75,-44.34 160.9,-52.42 167.43,-54.93"/>
</g>
</g>
</svg>
