<?xml version="1.0" encoding="UTF-8" standalone="no"?>
<!DOCTYPE svg PUBLIC "-//W3C//DTD SVG 1.1//EN"
 "http://www.w3.org/Graphics/SVG/1.1/DTD/svg11.dtd">
<!-- Generated by graphviz version 3.0.0 (20220226.1711)
 -->
<!-- Title: G Pages: 1 -->
<svg width="864pt" height="193pt"
 viewBox="0.00 0.00 864.00 193.00" xmlns="http://www.w3.org/2000/svg" xmlns:xlink="http://www.w3.org/1999/xlink">
<g id="graph0" class="graph" transform="scale(1 1) rotate(0) translate(4 189)">
<title>G</title>
<polygon fill="white" stroke="transparent" points="-4,4 -4,-189 860,-189 860,4 -4,4"/>
<!-- S0 -->
<g id="node1" class="node">
<title>S0</title>
<ellipse fill="none" stroke="black" cx="27" cy="-45" rx="27" ry="18"/>
<text text-anchor="middle" x="27" y="-41.3" font-family="Times New Roman,serif" font-size="14.00">S0</text>
</g>
<!-- S1 -->
<g id="node2" class="node">
<title>S1</title>
<ellipse fill="none" stroke="black" cx="124" cy="-72" rx="27" ry="18"/>
<text text-anchor="middle" x="124" y="-68.3" font-family="Times New Roman,serif" font-size="14.00">S1</text>
</g>
<!-- S0&#45;&gt;S1 -->
<g id="edge1" class="edge">
<title>S0&#45;&gt;S1</title>
<path fill="none" stroke="black" d="M52.46,-51.95C63.63,-55.13 77.04,-58.94 89.15,-62.38"/>
<polygon fill="black" stroke="black" points="88.37,-65.8 98.95,-65.16 90.28,-59.06 88.37,-65.8"/>
<text text-anchor="middle" x="75.5" y="-62.8" font-family="Times New Roman,serif" font-size="14.00">e</text>
</g>
<!-- S3 -->
<g id="node4" class="node">
<title>S3</title>
<ellipse fill="none" stroke="black" cx="124" cy="-18" rx="27" ry="18"/>
<text text-anchor="middle" x="124" y="-14.3" font-family="Times New Roman,serif" font-size="14.00">S3</text>
</g>
<!-- S0&#45;&gt;S3 -->
<g id="edge3" class="edge">
<title>S0&#45;&gt;S3</title>
<path fill="none" stroke="black" d="M52.46,-38.05C63.63,-34.87 77.04,-31.06 89.15,-27.62"/>
<polygon fill="black" stroke="black" points="90.28,-30.94 98.95,-24.84 88.37,-24.2 90.28,-30.94"/>
<text text-anchor="middle" x="75.5" y="-35.8" font-family="Times New Roman,serif" font-size="14.00">e</text>
</g>
<!-- S2 -->
<g id="node3" class="node">
<title>S2</title>
<ellipse fill="none" stroke="black" cx="234" cy="-72" rx="27" ry="18"/>
<text text-anchor="middle" x="234" y="-68.3" font-family="Times New Roman,serif" font-size="14.00">S2</text>
</g>
<!-- S1&#45;&gt;S2 -->
<g id="edge2" class="edge">
<title>S1&#45;&gt;S2</title>
<path fill="none" stroke="black" d="M151.14,-72C164.71,-72 181.5,-72 196.34,-72"/>
<polygon fill="black" stroke="black" points="196.72,-75.5 206.72,-72 196.72,-68.5 196.72,-75.5"/>
<text text-anchor="middle" x="179" y="-75.8" font-family="Times New Roman,serif" font-size="14.00">hex</text>
</g>
<!-- S5 -->
<g id="node6" class="node">
<title>S5</title>
<ellipse fill="none" stroke="black" cx="331" cy="-45" rx="27" ry="18"/>
<text text-anchor="middle" x="331" y="-41.3" font-family="Times New Roman,serif" font-size="14.00">S5</text>
</g>
<!-- S2&#45;&gt;S5 -->
<g id="edge5" class="edge">
<title>S2&#45;&gt;S5</title>
<path fill="none" stroke="black" d="M259.46,-65.05C270.63,-61.87 284.04,-58.06 296.15,-54.62"/>
<polygon fill="black" stroke="black" points="297.28,-57.94 305.95,-51.84 295.37,-51.2 297.28,-57.94"/>
<text text-anchor="middle" x="282.5" y="-62.8" font-family="Times New Roman,serif" font-size="14.00">e</text>
</g>
<!-- S4 -->
<g id="node5" class="node">
<title>S4</title>
<ellipse fill="none" stroke="black" cx="234" cy="-18" rx="27" ry="18"/>
<text text-anchor="middle" x="234" y="-14.3" font-family="Times New Roman,serif" font-size="14.00">S4</text>
</g>
<!-- S3&#45;&gt;S4 -->
<g id="edge4" class="edge">
<title>S3&#45;&gt;S4</title>
<path fill="none" stroke="black" d="M151.14,-18C164.71,-18 181.5,-18 196.34,-18"/>
<polygon fill="black" stroke="black" points="196.72,-21.5 206.72,-18 196.72,-14.5 196.72,-21.5"/>
<text text-anchor="middle" x="179" y="-21.8" font-family="Times New Roman,serif" font-size="14.00">dig</text>
</g>
<!-- S4&#45;&gt;S5 -->
<g id="edge6" class="edge">
<title>S4&#45;&gt;S5</title>
<path fill="none" stroke="black" d="M259.46,-24.95C270.63,-28.13 284.04,-31.94 296.15,-35.38"/>
<polygon fill="black" stroke="black" points="295.37,-38.8 305.95,-38.16 297.28,-32.06 295.37,-38.8"/>
<text text-anchor="middle" x="282.5" y="-35.8" font-family="Times New Roman,serif" font-size="14.00">e</text>
</g>
<!-- S6 -->
<g id="node7" class="node">
<title>S6</title>
<ellipse fill="none" stroke="black" cx="428" cy="-90" rx="27" ry="18"/>
<text text-anchor="middle" x="428" y="-86.3" font-family="Times New Roman,serif" font-size="14.00">S6</text>
</g>
<!-- S5&#45;&gt;S6 -->
<g id="edge7" class="edge">
<title>S5&#45;&gt;S6</title>
<path fill="none" stroke="black" d="M353.56,-55.21C366.19,-61.19 382.35,-68.85 396.3,-75.46"/>
<polygon fill="black" stroke="black" points="394.99,-78.71 405.53,-79.83 397.99,-72.39 394.99,-78.71"/>
<text text-anchor="middle" x="379.5" y="-71.8" font-family="Times New Roman,serif" font-size="14.00">e</text>
</g>
<!-- S12 -->
<g id="node13" class="node">
<title>S12</title>
<ellipse fill="none" stroke="black" cx="829" cy="-45" rx="27" ry="18"/>
<text text-anchor="middle" x="829" y="-41.3" font-family="Times New Roman,serif" font-size="14.00">S12</text>
</g>
<!-- S5&#45;&gt;S12 -->
<g id="edge16" class="edge">
<title>S5&#45;&gt;S12</title>
<path fill="none" stroke="black" d="M356.41,-38.58C375.49,-34.13 402.75,-29 427,-29 427,-29 427,-29 733,-29 753.27,-29 775.65,-32.59 793.58,-36.36"/>
<polygon fill="black" stroke="black" points="793.06,-39.83 803.59,-38.58 794.58,-33 793.06,-39.83"/>
<text text-anchor="middle" x="580" y="-32.8" font-family="Times New Roman,serif" font-size="14.00">e</text>
</g>
<!-- S7 -->
<g id="node8" class="node">
<title>S7</title>
<ellipse fill="none" stroke="black" cx="525" cy="-167" rx="27" ry="18"/>
<text text-anchor="middle" x="525" y="-163.3" font-family="Times New Roman,serif" font-size="14.00">S7</text>
</g>
<!-- S6&#45;&gt;S7 -->
<g id="edge8" class="edge">
<title>S6&#45;&gt;S7</title>
<path fill="none" stroke="black" d="M445.98,-103.77C460.84,-115.81 482.61,-133.46 499.38,-147.05"/>
<polygon fill="black" stroke="black" points="497.19,-149.78 507.16,-153.35 501.6,-144.34 497.19,-149.78"/>
<text text-anchor="middle" x="476.5" y="-133.8" font-family="Times New Roman,serif" font-size="14.00">e</text>
</g>
<!-- S9 -->
<g id="node10" class="node">
<title>S9</title>
<ellipse fill="none" stroke="black" cx="525" cy="-113" rx="27" ry="18"/>
<text text-anchor="middle" x="525" y="-109.3" font-family="Times New Roman,serif" font-size="14.00">S9</text>
</g>
<!-- S6&#45;&gt;S9 -->
<g id="edge10" class="edge">
<title>S6&#45;&gt;S9</title>
<path fill="none" stroke="black" d="M453.96,-96.04C464.76,-98.66 477.58,-101.76 489.29,-104.6"/>
<polygon fill="black" stroke="black" points="488.66,-108.05 499.21,-107 490.31,-101.24 488.66,-108.05"/>
<text text-anchor="middle" x="476.5" y="-105.8" font-family="Times New Roman,serif" font-size="14.00">e</text>
</g>
<!-- S8 -->
<g id="node9" class="node">
<title>S8</title>
<ellipse fill="none" stroke="black" cx="635" cy="-167" rx="27" ry="18"/>
<text text-anchor="middle" x="635" y="-163.3" font-family="Times New Roman,serif" font-size="14.00">S8</text>
</g>
<!-- S7&#45;&gt;S8 -->
<g id="edge9" class="edge">
<title>S7&#45;&gt;S8</title>
<path fill="none" stroke="black" d="M552.14,-167C565.71,-167 582.5,-167 597.34,-167"/>
<polygon fill="black" stroke="black" points="597.72,-170.5 607.72,-167 597.72,-163.5 597.72,-170.5"/>
<text text-anchor="middle" x="580" y="-170.8" font-family="Times New Roman,serif" font-size="14.00">hex</text>
</g>
<!-- S11 -->
<g id="node12" class="node">
<title>S11</title>
<ellipse fill="none" stroke="black" cx="732" cy="-87" rx="27" ry="18"/>
<text text-anchor="middle" x="732" y="-83.3" font-family="Times New Roman,serif" font-size="14.00">S11</text>
</g>
<!-- S8&#45;&gt;S11 -->
<g id="edge12" class="edge">
<title>S8&#45;&gt;S11</title>
<path fill="none" stroke="black" d="M652.55,-153.07C667.44,-140.52 689.52,-121.93 706.47,-107.66"/>
<polygon fill="black" stroke="black" points="708.93,-110.16 714.32,-101.04 704.42,-104.81 708.93,-110.16"/>
<text text-anchor="middle" x="683.5" y="-132.8" font-family="Times New Roman,serif" font-size="14.00">e</text>
</g>
<!-- S10 -->
<g id="node11" class="node">
<title>S10</title>
<ellipse fill="none" stroke="black" cx="635" cy="-113" rx="27" ry="18"/>
<text text-anchor="middle" x="635" y="-109.3" font-family="Times New Roman,serif" font-size="14.00">S10</text>
</g>
<!-- S9&#45;&gt;S10 -->
<g id="edge11" class="edge">
<title>S9&#45;&gt;S10</title>
<path fill="none" stroke="black" d="M552.14,-113C565.71,-113 582.5,-113 597.34,-113"/>
<polygon fill="black" stroke="black" points="597.72,-116.5 607.72,-113 597.72,-109.5 597.72,-116.5"/>
<text text-anchor="middle" x="580" y="-116.8" font-family="Times New Roman,serif" font-size="14.00">dig</text>
</g>
<!-- S10&#45;&gt;S11 -->
<g id="edge13" class="edge">
<title>S10&#45;&gt;S11</title>
<path fill="none" stroke="black" d="M660.46,-106.3C671.55,-103.27 684.83,-99.63 696.87,-96.34"/>
<polygon fill="black" stroke="black" points="697.9,-99.69 706.62,-93.67 696.05,-92.94 697.9,-99.69"/>
<text text-anchor="middle" x="683.5" y="-103.8" font-family="Times New Roman,serif" font-size="14.00">e</text>
</g>
<!-- S11&#45;&gt;S6 -->
<g id="edge14" class="edge">
<title>S11&#45;&gt;S6</title>
<path fill="none" stroke="black" d="M704.79,-86.32C661.65,-85.33 573.01,-83.83 498,-86 487.3,-86.31 475.67,-86.89 465.06,-87.51"/>
<polygon fill="black" stroke="black" points="464.63,-84.03 454.87,-88.14 465.07,-91.02 464.63,-84.03"/>
<text text-anchor="middle" x="580" y="-87.8" font-family="Times New Roman,serif" font-size="14.00">e</text>
</g>
<!-- S11&#45;&gt;S12 -->
<g id="edge15" class="edge">
<title>S11&#45;&gt;S12</title>
<path fill="none" stroke="black" d="M755.03,-77.26C767.38,-71.8 782.99,-64.9 796.6,-58.88"/>
<polygon fill="black" stroke="black" points="798.36,-61.93 806.09,-54.69 795.52,-55.53 798.36,-61.93"/>
<text text-anchor="middle" x="780.5" y="-70.8" font-family="Times New Roman,serif" font-size="14.00">e</text>
</g>
</g>
</svg>
