<?xml version="1.0" encoding="UTF-8" standalone="no"?>
<!DOCTYPE svg PUBLIC "-//W3C//DTD SVG 1.1//EN"
 "http://www.w3.org/Graphics/SVG/1.1/DTD/svg11.dtd">
<!-- Generated by graphviz version 3.0.0 (20220226.1711)
 -->
<!-- Title: G Pages: 1 -->
<svg width="612pt" height="84pt"
 viewBox="0.00 0.00 612.00 84.00" xmlns="http://www.w3.org/2000/svg" xmlns:xlink="http://www.w3.org/1999/xlink">
<g id="graph0" class="graph" transform="scale(1 1) rotate(0) translate(4 80)">
<title>G</title>
<polygon fill="white" stroke="transparent" points="-4,4 -4,-80 608,-80 608,4 -4,4"/>
<!-- S0 -->
<g id="node1" class="node">
<title>S0</title>
<ellipse fill="none" stroke="black" cx="27" cy="-18" rx="27" ry="18"/>
<text text-anchor="middle" x="27" y="-14.3" font-family="Times New Roman,serif" font-size="14.00">S0</text>
</g>
<!-- S1 -->
<g id="node2" class="node">
<title>S1</title>
<ellipse fill="none" stroke="black" cx="155" cy="-18" rx="27" ry="18"/>
<text text-anchor="middle" x="155" y="-14.3" font-family="Times New Roman,serif" font-size="14.00">S1</text>
</g>
<!-- S0&#45;&gt;S1 -->
<g id="edge1" class="edge">
<title>S0&#45;&gt;S1</title>
<path fill="none" stroke="black" d="M54.11,-18C72.52,-18 97.43,-18 117.77,-18"/>
<polygon fill="black" stroke="black" points="117.93,-21.5 127.93,-18 117.93,-14.5 117.93,-21.5"/>
<text text-anchor="middle" x="91" y="-21.8" font-family="Times New Roman,serif" font-size="14.00">Mayus</text>
</g>
<!-- S2 -->
<g id="node3" class="node">
<title>S2</title>
<ellipse fill="none" stroke="black" cx="269" cy="-18" rx="27" ry="18"/>
<text text-anchor="middle" x="269" y="-14.3" font-family="Times New Roman,serif" font-size="14.00">S2</text>
</g>
<!-- S1&#45;&gt;S2 -->
<g id="edge2" class="edge">
<title>S1&#45;&gt;S2</title>
<path fill="none" stroke="black" d="M182.26,-18C197,-18 215.62,-18 231.74,-18"/>
<polygon fill="black" stroke="black" points="231.91,-21.5 241.91,-18 231.91,-14.5 231.91,-21.5"/>
<text text-anchor="middle" x="212" y="-21.8" font-family="Times New Roman,serif" font-size="14.00">letra</text>
</g>
<!-- S3 -->
<g id="node4" class="node">
<title>S3</title>
<ellipse fill="none" stroke="black" cx="366" cy="-48" rx="27" ry="18"/>
<text text-anchor="middle" x="366" y="-44.3" font-family="Times New Roman,serif" font-size="14.00">S3</text>
</g>
<!-- S2&#45;&gt;S3 -->
<g id="edge3" class="edge">
<title>S2&#45;&gt;S3</title>
<path fill="none" stroke="black" d="M293.97,-25.57C305.42,-29.19 319.31,-33.57 331.76,-37.5"/>
<polygon fill="black" stroke="black" points="330.77,-40.86 341.36,-40.54 332.88,-34.19 330.77,-40.86"/>
<text text-anchor="middle" x="317.5" y="-36.8" font-family="Times New Roman,serif" font-size="14.00">e</text>
</g>
<!-- S5 -->
<g id="node6" class="node">
<title>S5</title>
<ellipse fill="none" stroke="black" cx="577" cy="-18" rx="27" ry="18"/>
<text text-anchor="middle" x="577" y="-14.3" font-family="Times New Roman,serif" font-size="14.00">S5</text>
</g>
<!-- S2&#45;&gt;S5 -->
<g id="edge7" class="edge">
<title>S2&#45;&gt;S5</title>
<path fill="none" stroke="black" d="M296.09,-18C350.74,-18 477.34,-18 539.81,-18"/>
<polygon fill="black" stroke="black" points="539.98,-21.5 549.98,-18 539.98,-14.5 539.98,-21.5"/>
<text text-anchor="middle" x="423" y="-21.8" font-family="Times New Roman,serif" font-size="14.00">e</text>
</g>
<!-- S4 -->
<g id="node5" class="node">
<title>S4</title>
<ellipse fill="none" stroke="black" cx="480" cy="-48" rx="27" ry="18"/>
<text text-anchor="middle" x="480" y="-44.3" font-family="Times New Roman,serif" font-size="14.00">S4</text>
</g>
<!-- S3&#45;&gt;S4 -->
<g id="edge4" class="edge">
<title>S3&#45;&gt;S4</title>
<path fill="none" stroke="black" d="M390.51,-55.65C397.07,-57.45 404.25,-59.1 411,-60 421.57,-61.42 424.43,-61.42 435,-60 438.48,-59.53 442.07,-58.87 445.64,-58.09"/>
<polygon fill="black" stroke="black" points="446.62,-61.45 455.49,-55.65 444.94,-54.66 446.62,-61.45"/>
<text text-anchor="middle" x="423" y="-64.8" font-family="Times New Roman,serif" font-size="14.00">letra</text>
</g>
<!-- S4&#45;&gt;S3 -->
<g id="edge5" class="edge">
<title>S4&#45;&gt;S3</title>
<path fill="none" stroke="black" d="M453.49,-43.24C447.45,-42.31 441.01,-41.48 435,-41 424.37,-40.16 421.63,-40.16 411,-41 408.27,-41.22 405.46,-41.5 402.64,-41.84"/>
<polygon fill="black" stroke="black" points="401.94,-38.41 392.51,-43.24 402.9,-45.34 401.94,-38.41"/>
<text text-anchor="middle" x="423" y="-44.8" font-family="Times New Roman,serif" font-size="14.00">e</text>
</g>
<!-- S4&#45;&gt;S5 -->
<g id="edge6" class="edge">
<title>S4&#45;&gt;S5</title>
<path fill="none" stroke="black" d="M504.97,-40.43C516.42,-36.81 530.31,-32.43 542.76,-28.5"/>
<polygon fill="black" stroke="black" points="543.88,-31.81 552.36,-25.46 541.77,-25.14 543.88,-31.81"/>
<text text-anchor="middle" x="528.5" y="-36.8" font-family="Times New Roman,serif" font-size="14.00">e</text>
</g>
</g>
</svg>
