<?xml version="1.0" encoding="UTF-8" standalone="no"?>
<!DOCTYPE svg PUBLIC "-//W3C//DTD SVG 1.1//EN"
 "http://www.w3.org/Graphics/SVG/1.1/DTD/svg11.dtd">
<!-- Generated by graphviz version 3.0.0 (20220226.1711)
 -->
<!-- Title: G Pages: 1 -->
<svg width="2210pt" height="193pt"
 viewBox="0.00 0.00 2210.00 193.00" xmlns="http://www.w3.org/2000/svg" xmlns:xlink="http://www.w3.org/1999/xlink">
<g id="graph0" class="graph" transform="scale(1 1) rotate(0) translate(4 189)">
<title>G</title>
<polygon fill="white" stroke="transparent" points="-4,4 -4,-189 2206,-189 2206,4 -4,4"/>
<!-- S0 -->
<g id="node1" class="node">
<title>S0</title>
<ellipse fill="none" stroke="black" cx="27" cy="-45" rx="27" ry="18"/>
<text text-anchor="middle" x="27" y="-41.3" font-family="Times New Roman,serif" font-size="14.00">S0</text>
</g>
<!-- S1 -->
<g id="node2" class="node">
<title>S1</title>
<ellipse fill="none" stroke="black" cx="135" cy="-45" rx="27" ry="18"/>
<text text-anchor="middle" x="135" y="-41.3" font-family="Times New Roman,serif" font-size="14.00">S1</text>
</g>
<!-- S0&#45;&gt;S1 -->
<g id="edge1" class="edge">
<title>S0&#45;&gt;S1</title>
<path fill="none" stroke="black" d="M54.2,-45C67.33,-45 83.42,-45 97.71,-45"/>
<polygon fill="black" stroke="black" points="97.73,-48.5 107.73,-45 97.73,-41.5 97.73,-48.5"/>
<text text-anchor="middle" x="81" y="-48.8" font-family="Times New Roman,serif" font-size="14.00">w &#160;</text>
</g>
<!-- S2 -->
<g id="node3" class="node">
<title>S2</title>
<ellipse fill="none" stroke="black" cx="243" cy="-45" rx="27" ry="18"/>
<text text-anchor="middle" x="243" y="-41.3" font-family="Times New Roman,serif" font-size="14.00">S2</text>
</g>
<!-- S1&#45;&gt;S2 -->
<g id="edge2" class="edge">
<title>S1&#45;&gt;S2</title>
<path fill="none" stroke="black" d="M162.2,-45C175.33,-45 191.42,-45 205.71,-45"/>
<polygon fill="black" stroke="black" points="205.73,-48.5 215.73,-45 205.73,-41.5 205.73,-48.5"/>
<text text-anchor="middle" x="189" y="-48.8" font-family="Times New Roman,serif" font-size="14.00">w &#160;</text>
</g>
<!-- S3 -->
<g id="node4" class="node">
<title>S3</title>
<ellipse fill="none" stroke="black" cx="351" cy="-45" rx="27" ry="18"/>
<text text-anchor="middle" x="351" y="-41.3" font-family="Times New Roman,serif" font-size="14.00">S3</text>
</g>
<!-- S2&#45;&gt;S3 -->
<g id="edge3" class="edge">
<title>S2&#45;&gt;S3</title>
<path fill="none" stroke="black" d="M270.2,-45C283.33,-45 299.42,-45 313.71,-45"/>
<polygon fill="black" stroke="black" points="313.73,-48.5 323.73,-45 313.73,-41.5 313.73,-48.5"/>
<text text-anchor="middle" x="297" y="-48.8" font-family="Times New Roman,serif" font-size="14.00">w &#160;</text>
</g>
<!-- S4 -->
<g id="node5" class="node">
<title>S4</title>
<ellipse fill="none" stroke="black" cx="449" cy="-45" rx="27" ry="18"/>
<text text-anchor="middle" x="449" y="-41.3" font-family="Times New Roman,serif" font-size="14.00">S4</text>
</g>
<!-- S3&#45;&gt;S4 -->
<g id="edge4" class="edge">
<title>S3&#45;&gt;S4</title>
<path fill="none" stroke="black" d="M378.23,-45C388.5,-45 400.45,-45 411.53,-45"/>
<polygon fill="black" stroke="black" points="411.8,-48.5 421.8,-45 411.8,-41.5 411.8,-48.5"/>
<text text-anchor="middle" x="400" y="-48.8" font-family="Times New Roman,serif" font-size="14.00">. </text>
</g>
<!-- S5 -->
<g id="node6" class="node">
<title>S5</title>
<ellipse fill="none" stroke="black" cx="546" cy="-72" rx="27" ry="18"/>
<text text-anchor="middle" x="546" y="-68.3" font-family="Times New Roman,serif" font-size="14.00">S5</text>
</g>
<!-- S4&#45;&gt;S5 -->
<g id="edge5" class="edge">
<title>S4&#45;&gt;S5</title>
<path fill="none" stroke="black" d="M474.46,-51.95C485.63,-55.13 499.04,-58.94 511.15,-62.38"/>
<polygon fill="black" stroke="black" points="510.37,-65.8 520.95,-65.16 512.28,-59.06 510.37,-65.8"/>
<text text-anchor="middle" x="497.5" y="-62.8" font-family="Times New Roman,serif" font-size="14.00">e</text>
</g>
<!-- S7 -->
<g id="node8" class="node">
<title>S7</title>
<ellipse fill="none" stroke="black" cx="546" cy="-18" rx="27" ry="18"/>
<text text-anchor="middle" x="546" y="-14.3" font-family="Times New Roman,serif" font-size="14.00">S7</text>
</g>
<!-- S4&#45;&gt;S7 -->
<g id="edge7" class="edge">
<title>S4&#45;&gt;S7</title>
<path fill="none" stroke="black" d="M474.46,-38.05C485.63,-34.87 499.04,-31.06 511.15,-27.62"/>
<polygon fill="black" stroke="black" points="512.28,-30.94 520.95,-24.84 510.37,-24.2 512.28,-30.94"/>
<text text-anchor="middle" x="497.5" y="-35.8" font-family="Times New Roman,serif" font-size="14.00">e</text>
</g>
<!-- S6 -->
<g id="node7" class="node">
<title>S6</title>
<ellipse fill="none" stroke="black" cx="660" cy="-72" rx="27" ry="18"/>
<text text-anchor="middle" x="660" y="-68.3" font-family="Times New Roman,serif" font-size="14.00">S6</text>
</g>
<!-- S5&#45;&gt;S6 -->
<g id="edge6" class="edge">
<title>S5&#45;&gt;S6</title>
<path fill="none" stroke="black" d="M573.26,-72C588,-72 606.62,-72 622.74,-72"/>
<polygon fill="black" stroke="black" points="622.91,-75.5 632.91,-72 622.91,-68.5 622.91,-75.5"/>
<text text-anchor="middle" x="603" y="-75.8" font-family="Times New Roman,serif" font-size="14.00">letra</text>
</g>
<!-- S9 -->
<g id="node10" class="node">
<title>S9</title>
<ellipse fill="none" stroke="black" cx="757" cy="-45" rx="27" ry="18"/>
<text text-anchor="middle" x="757" y="-41.3" font-family="Times New Roman,serif" font-size="14.00">S9</text>
</g>
<!-- S6&#45;&gt;S9 -->
<g id="edge9" class="edge">
<title>S6&#45;&gt;S9</title>
<path fill="none" stroke="black" d="M685.46,-65.05C696.63,-61.87 710.04,-58.06 722.15,-54.62"/>
<polygon fill="black" stroke="black" points="723.28,-57.94 731.95,-51.84 721.37,-51.2 723.28,-57.94"/>
<text text-anchor="middle" x="708.5" y="-62.8" font-family="Times New Roman,serif" font-size="14.00">e</text>
</g>
<!-- S8 -->
<g id="node9" class="node">
<title>S8</title>
<ellipse fill="none" stroke="black" cx="660" cy="-18" rx="27" ry="18"/>
<text text-anchor="middle" x="660" y="-14.3" font-family="Times New Roman,serif" font-size="14.00">S8</text>
</g>
<!-- S7&#45;&gt;S8 -->
<g id="edge8" class="edge">
<title>S7&#45;&gt;S8</title>
<path fill="none" stroke="black" d="M573.26,-18C588,-18 606.62,-18 622.74,-18"/>
<polygon fill="black" stroke="black" points="622.91,-21.5 632.91,-18 622.91,-14.5 622.91,-21.5"/>
<text text-anchor="middle" x="603" y="-21.8" font-family="Times New Roman,serif" font-size="14.00">dig</text>
</g>
<!-- S8&#45;&gt;S9 -->
<g id="edge10" class="edge">
<title>S8&#45;&gt;S9</title>
<path fill="none" stroke="black" d="M685.46,-24.95C696.63,-28.13 710.04,-31.94 722.15,-35.38"/>
<polygon fill="black" stroke="black" points="721.37,-38.8 731.95,-38.16 723.28,-32.06 721.37,-38.8"/>
<text text-anchor="middle" x="708.5" y="-35.8" font-family="Times New Roman,serif" font-size="14.00">e</text>
</g>
<!-- S10 -->
<g id="node11" class="node">
<title>S10</title>
<ellipse fill="none" stroke="black" cx="854" cy="-90" rx="27" ry="18"/>
<text text-anchor="middle" x="854" y="-86.3" font-family="Times New Roman,serif" font-size="14.00">S10</text>
</g>
<!-- S9&#45;&gt;S10 -->
<g id="edge11" class="edge">
<title>S9&#45;&gt;S10</title>
<path fill="none" stroke="black" d="M779.56,-55.21C792.19,-61.19 808.35,-68.85 822.3,-75.46"/>
<polygon fill="black" stroke="black" points="820.99,-78.71 831.53,-79.83 823.99,-72.39 820.99,-78.71"/>
<text text-anchor="middle" x="805.5" y="-71.8" font-family="Times New Roman,serif" font-size="14.00">e</text>
</g>
<!-- S16 -->
<g id="node17" class="node">
<title>S16</title>
<ellipse fill="none" stroke="black" cx="1259" cy="-45" rx="27" ry="18"/>
<text text-anchor="middle" x="1259" y="-41.3" font-family="Times New Roman,serif" font-size="14.00">S16</text>
</g>
<!-- S9&#45;&gt;S16 -->
<g id="edge20" class="edge">
<title>S9&#45;&gt;S16</title>
<path fill="none" stroke="black" d="M782.41,-38.58C801.49,-34.13 828.75,-29 853,-29 853,-29 853,-29 1163,-29 1183.27,-29 1205.65,-32.59 1223.58,-36.36"/>
<polygon fill="black" stroke="black" points="1223.06,-39.83 1233.59,-38.58 1224.58,-33 1223.06,-39.83"/>
<text text-anchor="middle" x="1008" y="-32.8" font-family="Times New Roman,serif" font-size="14.00">e</text>
</g>
<!-- S11 -->
<g id="node12" class="node">
<title>S11</title>
<ellipse fill="none" stroke="black" cx="951" cy="-167" rx="27" ry="18"/>
<text text-anchor="middle" x="951" y="-163.3" font-family="Times New Roman,serif" font-size="14.00">S11</text>
</g>
<!-- S10&#45;&gt;S11 -->
<g id="edge12" class="edge">
<title>S10&#45;&gt;S11</title>
<path fill="none" stroke="black" d="M871.98,-103.77C886.84,-115.81 908.61,-133.46 925.38,-147.05"/>
<polygon fill="black" stroke="black" points="923.19,-149.78 933.16,-153.35 927.6,-144.34 923.19,-149.78"/>
<text text-anchor="middle" x="902.5" y="-133.8" font-family="Times New Roman,serif" font-size="14.00">e</text>
</g>
<!-- S13 -->
<g id="node14" class="node">
<title>S13</title>
<ellipse fill="none" stroke="black" cx="951" cy="-113" rx="27" ry="18"/>
<text text-anchor="middle" x="951" y="-109.3" font-family="Times New Roman,serif" font-size="14.00">S13</text>
</g>
<!-- S10&#45;&gt;S13 -->
<g id="edge14" class="edge">
<title>S10&#45;&gt;S13</title>
<path fill="none" stroke="black" d="M879.96,-96.04C890.76,-98.66 903.58,-101.76 915.29,-104.6"/>
<polygon fill="black" stroke="black" points="914.66,-108.05 925.21,-107 916.31,-101.24 914.66,-108.05"/>
<text text-anchor="middle" x="902.5" y="-105.8" font-family="Times New Roman,serif" font-size="14.00">e</text>
</g>
<!-- S12 -->
<g id="node13" class="node">
<title>S12</title>
<ellipse fill="none" stroke="black" cx="1065" cy="-167" rx="27" ry="18"/>
<text text-anchor="middle" x="1065" y="-163.3" font-family="Times New Roman,serif" font-size="14.00">S12</text>
</g>
<!-- S11&#45;&gt;S12 -->
<g id="edge13" class="edge">
<title>S11&#45;&gt;S12</title>
<path fill="none" stroke="black" d="M978.26,-167C993,-167 1011.62,-167 1027.74,-167"/>
<polygon fill="black" stroke="black" points="1027.91,-170.5 1037.91,-167 1027.91,-163.5 1027.91,-170.5"/>
<text text-anchor="middle" x="1008" y="-170.8" font-family="Times New Roman,serif" font-size="14.00">letra</text>
</g>
<!-- S15 -->
<g id="node16" class="node">
<title>S15</title>
<ellipse fill="none" stroke="black" cx="1162" cy="-87" rx="27" ry="18"/>
<text text-anchor="middle" x="1162" y="-83.3" font-family="Times New Roman,serif" font-size="14.00">S15</text>
</g>
<!-- S12&#45;&gt;S15 -->
<g id="edge16" class="edge">
<title>S12&#45;&gt;S15</title>
<path fill="none" stroke="black" d="M1082.55,-153.07C1097.44,-140.52 1119.52,-121.93 1136.47,-107.66"/>
<polygon fill="black" stroke="black" points="1138.93,-110.16 1144.32,-101.04 1134.42,-104.81 1138.93,-110.16"/>
<text text-anchor="middle" x="1113.5" y="-132.8" font-family="Times New Roman,serif" font-size="14.00">e</text>
</g>
<!-- S14 -->
<g id="node15" class="node">
<title>S14</title>
<ellipse fill="none" stroke="black" cx="1065" cy="-113" rx="27" ry="18"/>
<text text-anchor="middle" x="1065" y="-109.3" font-family="Times New Roman,serif" font-size="14.00">S14</text>
</g>
<!-- S13&#45;&gt;S14 -->
<g id="edge15" class="edge">
<title>S13&#45;&gt;S14</title>
<path fill="none" stroke="black" d="M978.26,-113C993,-113 1011.62,-113 1027.74,-113"/>
<polygon fill="black" stroke="black" points="1027.91,-116.5 1037.91,-113 1027.91,-109.5 1027.91,-116.5"/>
<text text-anchor="middle" x="1008" y="-116.8" font-family="Times New Roman,serif" font-size="14.00">dig</text>
</g>
<!-- S14&#45;&gt;S15 -->
<g id="edge17" class="edge">
<title>S14&#45;&gt;S15</title>
<path fill="none" stroke="black" d="M1090.46,-106.3C1101.55,-103.27 1114.83,-99.63 1126.87,-96.34"/>
<polygon fill="black" stroke="black" points="1127.9,-99.69 1136.62,-93.67 1126.05,-92.94 1127.9,-99.69"/>
<text text-anchor="middle" x="1113.5" y="-103.8" font-family="Times New Roman,serif" font-size="14.00">e</text>
</g>
<!-- S15&#45;&gt;S10 -->
<g id="edge18" class="edge">
<title>S15&#45;&gt;S10</title>
<path fill="none" stroke="black" d="M1134.69,-86.32C1090.95,-85.32 1000.5,-83.78 924,-86 913.3,-86.31 901.67,-86.89 891.06,-87.51"/>
<polygon fill="black" stroke="black" points="890.63,-84.03 880.87,-88.14 891.07,-91.02 890.63,-84.03"/>
<text text-anchor="middle" x="1008" y="-87.8" font-family="Times New Roman,serif" font-size="14.00">e</text>
</g>
<!-- S15&#45;&gt;S16 -->
<g id="edge19" class="edge">
<title>S15&#45;&gt;S16</title>
<path fill="none" stroke="black" d="M1185.03,-77.26C1197.38,-71.8 1212.99,-64.9 1226.6,-58.88"/>
<polygon fill="black" stroke="black" points="1228.36,-61.93 1236.09,-54.69 1225.52,-55.53 1228.36,-61.93"/>
<text text-anchor="middle" x="1210.5" y="-70.8" font-family="Times New Roman,serif" font-size="14.00">e</text>
</g>
<!-- S17 -->
<g id="node18" class="node">
<title>S17</title>
<ellipse fill="none" stroke="black" cx="1357" cy="-45" rx="27" ry="18"/>
<text text-anchor="middle" x="1357" y="-41.3" font-family="Times New Roman,serif" font-size="14.00">S17</text>
</g>
<!-- S16&#45;&gt;S17 -->
<g id="edge21" class="edge">
<title>S16&#45;&gt;S17</title>
<path fill="none" stroke="black" d="M1286.23,-45C1296.5,-45 1308.45,-45 1319.53,-45"/>
<polygon fill="black" stroke="black" points="1319.8,-48.5 1329.8,-45 1319.8,-41.5 1319.8,-48.5"/>
<text text-anchor="middle" x="1308" y="-48.8" font-family="Times New Roman,serif" font-size="14.00">. </text>
</g>
<!-- S18 -->
<g id="node19" class="node">
<title>S18</title>
<ellipse fill="none" stroke="black" cx="1454" cy="-72" rx="27" ry="18"/>
<text text-anchor="middle" x="1454" y="-68.3" font-family="Times New Roman,serif" font-size="14.00">S18</text>
</g>
<!-- S17&#45;&gt;S18 -->
<g id="edge22" class="edge">
<title>S17&#45;&gt;S18</title>
<path fill="none" stroke="black" d="M1382.46,-51.95C1393.63,-55.13 1407.04,-58.94 1419.15,-62.38"/>
<polygon fill="black" stroke="black" points="1418.37,-65.8 1428.95,-65.16 1420.28,-59.06 1418.37,-65.8"/>
<text text-anchor="middle" x="1405.5" y="-62.8" font-family="Times New Roman,serif" font-size="14.00">e</text>
</g>
<!-- S20 -->
<g id="node21" class="node">
<title>S20</title>
<ellipse fill="none" stroke="black" cx="1454" cy="-18" rx="27" ry="18"/>
<text text-anchor="middle" x="1454" y="-14.3" font-family="Times New Roman,serif" font-size="14.00">S20</text>
</g>
<!-- S17&#45;&gt;S20 -->
<g id="edge24" class="edge">
<title>S17&#45;&gt;S20</title>
<path fill="none" stroke="black" d="M1382.46,-38.05C1393.63,-34.87 1407.04,-31.06 1419.15,-27.62"/>
<polygon fill="black" stroke="black" points="1420.28,-30.94 1428.95,-24.84 1418.37,-24.2 1420.28,-30.94"/>
<text text-anchor="middle" x="1405.5" y="-35.8" font-family="Times New Roman,serif" font-size="14.00">e</text>
</g>
<!-- S19 -->
<g id="node20" class="node">
<title>S19</title>
<ellipse fill="none" stroke="black" cx="1568" cy="-72" rx="27" ry="18"/>
<text text-anchor="middle" x="1568" y="-68.3" font-family="Times New Roman,serif" font-size="14.00">S19</text>
</g>
<!-- S18&#45;&gt;S19 -->
<g id="edge23" class="edge">
<title>S18&#45;&gt;S19</title>
<path fill="none" stroke="black" d="M1481.26,-72C1496,-72 1514.62,-72 1530.74,-72"/>
<polygon fill="black" stroke="black" points="1530.91,-75.5 1540.91,-72 1530.91,-68.5 1530.91,-75.5"/>
<text text-anchor="middle" x="1511" y="-75.8" font-family="Times New Roman,serif" font-size="14.00">letra</text>
</g>
<!-- S22 -->
<g id="node23" class="node">
<title>S22</title>
<ellipse fill="none" stroke="black" cx="1665" cy="-45" rx="27" ry="18"/>
<text text-anchor="middle" x="1665" y="-41.3" font-family="Times New Roman,serif" font-size="14.00">S22</text>
</g>
<!-- S19&#45;&gt;S22 -->
<g id="edge26" class="edge">
<title>S19&#45;&gt;S22</title>
<path fill="none" stroke="black" d="M1593.46,-65.05C1604.63,-61.87 1618.04,-58.06 1630.15,-54.62"/>
<polygon fill="black" stroke="black" points="1631.28,-57.94 1639.95,-51.84 1629.37,-51.2 1631.28,-57.94"/>
<text text-anchor="middle" x="1616.5" y="-62.8" font-family="Times New Roman,serif" font-size="14.00">e</text>
</g>
<!-- S21 -->
<g id="node22" class="node">
<title>S21</title>
<ellipse fill="none" stroke="black" cx="1568" cy="-18" rx="27" ry="18"/>
<text text-anchor="middle" x="1568" y="-14.3" font-family="Times New Roman,serif" font-size="14.00">S21</text>
</g>
<!-- S20&#45;&gt;S21 -->
<g id="edge25" class="edge">
<title>S20&#45;&gt;S21</title>
<path fill="none" stroke="black" d="M1481.26,-18C1496,-18 1514.62,-18 1530.74,-18"/>
<polygon fill="black" stroke="black" points="1530.91,-21.5 1540.91,-18 1530.91,-14.5 1530.91,-21.5"/>
<text text-anchor="middle" x="1511" y="-21.8" font-family="Times New Roman,serif" font-size="14.00">dig</text>
</g>
<!-- S21&#45;&gt;S22 -->
<g id="edge27" class="edge">
<title>S21&#45;&gt;S22</title>
<path fill="none" stroke="black" d="M1593.46,-24.95C1604.63,-28.13 1618.04,-31.94 1630.15,-35.38"/>
<polygon fill="black" stroke="black" points="1629.37,-38.8 1639.95,-38.16 1631.28,-32.06 1629.37,-38.8"/>
<text text-anchor="middle" x="1616.5" y="-35.8" font-family="Times New Roman,serif" font-size="14.00">e</text>
</g>
<!-- S23 -->
<g id="node24" class="node">
<title>S23</title>
<ellipse fill="none" stroke="black" cx="1762" cy="-90" rx="27" ry="18"/>
<text text-anchor="middle" x="1762" y="-86.3" font-family="Times New Roman,serif" font-size="14.00">S23</text>
</g>
<!-- S22&#45;&gt;S23 -->
<g id="edge28" class="edge">
<title>S22&#45;&gt;S23</title>
<path fill="none" stroke="black" d="M1687.56,-55.21C1700.19,-61.19 1716.35,-68.85 1730.3,-75.46"/>
<polygon fill="black" stroke="black" points="1728.99,-78.71 1739.53,-79.83 1731.99,-72.39 1728.99,-78.71"/>
<text text-anchor="middle" x="1713.5" y="-71.8" font-family="Times New Roman,serif" font-size="14.00">e</text>
</g>
<!-- S29 -->
<g id="node30" class="node">
<title>S29</title>
<ellipse fill="none" stroke="black" cx="2175" cy="-45" rx="27" ry="18"/>
<text text-anchor="middle" x="2175" y="-41.3" font-family="Times New Roman,serif" font-size="14.00">S29</text>
</g>
<!-- S22&#45;&gt;S29 -->
<g id="edge37" class="edge">
<title>S22&#45;&gt;S29</title>
<path fill="none" stroke="black" d="M1690.41,-38.58C1709.49,-34.13 1736.75,-29 1761,-29 1761,-29 1761,-29 2079,-29 2099.27,-29 2121.65,-32.59 2139.58,-36.36"/>
<polygon fill="black" stroke="black" points="2139.06,-39.83 2149.59,-38.58 2140.58,-33 2139.06,-39.83"/>
<text text-anchor="middle" x="1920" y="-32.8" font-family="Times New Roman,serif" font-size="14.00">e</text>
</g>
<!-- S24 -->
<g id="node25" class="node">
<title>S24</title>
<ellipse fill="none" stroke="black" cx="1859" cy="-167" rx="27" ry="18"/>
<text text-anchor="middle" x="1859" y="-163.3" font-family="Times New Roman,serif" font-size="14.00">S24</text>
</g>
<!-- S23&#45;&gt;S24 -->
<g id="edge29" class="edge">
<title>S23&#45;&gt;S24</title>
<path fill="none" stroke="black" d="M1779.98,-103.77C1794.84,-115.81 1816.61,-133.46 1833.38,-147.05"/>
<polygon fill="black" stroke="black" points="1831.19,-149.78 1841.16,-153.35 1835.6,-144.34 1831.19,-149.78"/>
<text text-anchor="middle" x="1810.5" y="-133.8" font-family="Times New Roman,serif" font-size="14.00">e</text>
</g>
<!-- S26 -->
<g id="node27" class="node">
<title>S26</title>
<ellipse fill="none" stroke="black" cx="1859" cy="-113" rx="27" ry="18"/>
<text text-anchor="middle" x="1859" y="-109.3" font-family="Times New Roman,serif" font-size="14.00">S26</text>
</g>
<!-- S23&#45;&gt;S26 -->
<g id="edge31" class="edge">
<title>S23&#45;&gt;S26</title>
<path fill="none" stroke="black" d="M1787.96,-96.04C1798.76,-98.66 1811.58,-101.76 1823.29,-104.6"/>
<polygon fill="black" stroke="black" points="1822.66,-108.05 1833.21,-107 1824.31,-101.24 1822.66,-108.05"/>
<text text-anchor="middle" x="1810.5" y="-105.8" font-family="Times New Roman,serif" font-size="14.00">e</text>
</g>
<!-- S25 -->
<g id="node26" class="node">
<title>S25</title>
<ellipse fill="none" stroke="black" cx="1981" cy="-167" rx="27" ry="18"/>
<text text-anchor="middle" x="1981" y="-163.3" font-family="Times New Roman,serif" font-size="14.00">S25</text>
</g>
<!-- S24&#45;&gt;S25 -->
<g id="edge30" class="edge">
<title>S24&#45;&gt;S25</title>
<path fill="none" stroke="black" d="M1886.04,-167C1902.83,-167 1924.91,-167 1943.44,-167"/>
<polygon fill="black" stroke="black" points="1943.6,-170.5 1953.6,-167 1943.6,-163.5 1943.6,-170.5"/>
<text text-anchor="middle" x="1920" y="-170.8" font-family="Times New Roman,serif" font-size="14.00">letra</text>
</g>
<!-- S28 -->
<g id="node29" class="node">
<title>S28</title>
<ellipse fill="none" stroke="black" cx="2078" cy="-87" rx="27" ry="18"/>
<text text-anchor="middle" x="2078" y="-83.3" font-family="Times New Roman,serif" font-size="14.00">S28</text>
</g>
<!-- S25&#45;&gt;S28 -->
<g id="edge33" class="edge">
<title>S25&#45;&gt;S28</title>
<path fill="none" stroke="black" d="M1998.55,-153.07C2013.44,-140.52 2035.52,-121.93 2052.47,-107.66"/>
<polygon fill="black" stroke="black" points="2054.93,-110.16 2060.32,-101.04 2050.42,-104.81 2054.93,-110.16"/>
<text text-anchor="middle" x="2029.5" y="-132.8" font-family="Times New Roman,serif" font-size="14.00">e</text>
</g>
<!-- S27 -->
<g id="node28" class="node">
<title>S27</title>
<ellipse fill="none" stroke="black" cx="1981" cy="-113" rx="27" ry="18"/>
<text text-anchor="middle" x="1981" y="-109.3" font-family="Times New Roman,serif" font-size="14.00">S27</text>
</g>
<!-- S26&#45;&gt;S27 -->
<g id="edge32" class="edge">
<title>S26&#45;&gt;S27</title>
<path fill="none" stroke="black" d="M1886.04,-113C1902.83,-113 1924.91,-113 1943.44,-113"/>
<polygon fill="black" stroke="black" points="1943.6,-116.5 1953.6,-113 1943.6,-109.5 1943.6,-116.5"/>
<text text-anchor="middle" x="1920" y="-116.8" font-family="Times New Roman,serif" font-size="14.00">digito</text>
</g>
<!-- S27&#45;&gt;S28 -->
<g id="edge34" class="edge">
<title>S27&#45;&gt;S28</title>
<path fill="none" stroke="black" d="M2006.46,-106.3C2017.55,-103.27 2030.83,-99.63 2042.87,-96.34"/>
<polygon fill="black" stroke="black" points="2043.9,-99.69 2052.62,-93.67 2042.05,-92.94 2043.9,-99.69"/>
<text text-anchor="middle" x="2029.5" y="-103.8" font-family="Times New Roman,serif" font-size="14.00">e</text>
</g>
<!-- S28&#45;&gt;S23 -->
<g id="edge35" class="edge">
<title>S28&#45;&gt;S23</title>
<path fill="none" stroke="black" d="M2050.89,-86.33C2006.09,-85.3 1911.72,-83.69 1832,-86 1821.3,-86.31 1809.67,-86.89 1799.06,-87.51"/>
<polygon fill="black" stroke="black" points="1798.63,-84.03 1788.87,-88.14 1799.07,-91.02 1798.63,-84.03"/>
<text text-anchor="middle" x="1920" y="-87.8" font-family="Times New Roman,serif" font-size="14.00">e</text>
</g>
<!-- S28&#45;&gt;S29 -->
<g id="edge36" class="edge">
<title>S28&#45;&gt;S29</title>
<path fill="none" stroke="black" d="M2101.03,-77.26C2113.38,-71.8 2128.99,-64.9 2142.6,-58.88"/>
<polygon fill="black" stroke="black" points="2144.36,-61.93 2152.09,-54.69 2141.52,-55.53 2144.36,-61.93"/>
<text text-anchor="middle" x="2126.5" y="-70.8" font-family="Times New Roman,serif" font-size="14.00">e</text>
</g>
</g>
</svg>
